<?xml version="1.0" standalone="no"?><!DOCTYPE svg PUBLIC "-//W3C//DTD SVG 1.1//EN" "http://www.w3.org/Graphics/SVG/1.1/DTD/svg11.dtd"><svg t="1528257852396" class="icon" style="" viewBox="0 0 1024 1024" version="1.1" xmlns="http://www.w3.org/2000/svg" p-id="8272" xmlns:xlink="http://www.w3.org/1999/xlink" width="200" height="200"><defs><style type="text/css"></style></defs><path d="M908.124 248.213h-132.239v-132.24c0-36.521-29.601-66.122-66.122-66.122h-595.084c-36.521 0-66.122 29.601-66.122 66.122v595.084c0 36.521 29.601 66.122 66.122 66.122h132.239v132.239c0 36.521 29.604 66.122 66.123 66.122h595.083c36.521 0 66.122-29.601 66.122-66.122v-595.083c0-36.521-29.601-66.122-66.122-66.122zM246.918 314.336v396.719h-132.239v-595.084h595.084v132.24h-396.719c-36.521 0-66.123 29.601-66.123 66.122zM797.435 596.768l-253.747 256.509c-2.596 2.624-6.014 3.938-9.435 3.938-3.372 0-6.743-1.279-9.333-3.838-3.696-3.657-4.79-8.948-3.274-13.573-0.006-1.045 0.109-2.111 0.362-3.17l44.566-186.624h-133.81c-7.326 0-13.268-5.941-13.268-13.271 0-0.354 0.017-0.706 0.045-1.056-0.295-3.715 0.966-7.532 3.789-10.389l253.748-256.509c5.153-5.211 13.557-5.257 18.767-0.101 2.499 2.471 3.806 5.694 3.925 8.95 0.365 1.798 0.365 3.7-0.074 5.609l-43.55 189.486h129.634c3.129 0 6.001 1.085 8.27 2.895 1.179 0.604 2.288 1.396 3.282 2.378 5.209 5.153 5.257 13.554 0.101 18.767z" p-id="8273"></path></svg>